<?xml version="1.0" encoding="UTF-8"?>
<!DOCTYPE svg PUBLIC "-//W3C//DTD SVG 1.1//EN" "http://www.w3.org/Graphics/SVG/1.1/DTD/svg11.dtd">
<svg xmlns="http://www.w3.org/2000/svg" version="1.1" width="512px" height="512px" style="shape-rendering:geometricPrecision; text-rendering:geometricPrecision; image-rendering:optimizeQuality; fill-rule:evenodd; clip-rule:evenodd" xmlns:xlink="http://www.w3.org/1999/xlink">
<g><path style="opacity:0.996" fill="#fec164" d="M 511.5,162.5 C 511.5,165.167 511.5,167.833 511.5,170.5C 510.251,172.136 508.584,173.303 506.5,174C 495.626,177.236 484.959,180.736 474.5,184.5C 473.85,184.196 473.183,183.863 472.5,183.5C 451.999,190.457 431.332,196.791 410.5,202.5C 395.849,157.857 367.849,124.524 326.5,102.5C 337.708,82.7478 348.375,62.7478 358.5,42.5C 363.973,32.8959 369.473,23.2292 375,13.5C 376.501,11.4164 378.501,10.0831 381,9.5C 429.68,36.5138 467.347,74.5138 494,123.5C 500.432,136.353 506.265,149.353 511.5,162.5 Z"/></g>
<g><path style="opacity:0.996" fill="#fde87c" d="M 358.5,42.5 C 348.375,62.7478 337.708,82.7478 326.5,102.5C 322.167,109.833 317.833,117.167 313.5,124.5C 280.094,106.661 244.761,101.827 207.5,110C 196.725,112.757 186.391,116.59 176.5,121.5C 176.167,121.5 175.833,121.5 175.5,121.5C 163.081,93.5845 150.081,65.9179 136.5,38.5C 186.183,14.8108 238.183,8.31078 292.5,19C 315.568,23.9662 337.568,31.7996 358.5,42.5 Z"/></g>
<g><path style="opacity:0.997" fill="#6cf4c1" d="M 136.5,38.5 C 150.081,65.9179 163.081,93.5845 175.5,121.5C 140.351,139.983 115.351,167.65 100.5,204.5C 71.8439,193.84 43.1772,183.173 14.5,172.5C 37.3699,111.63 78.0366,66.9635 136.5,38.5 Z"/></g>
<g><path style="opacity:0.997" fill="#fdb441" d="M 326.5,102.5 C 367.849,124.524 395.849,157.857 410.5,202.5C 402.217,205.654 393.883,208.654 385.5,211.5C 364.713,217.429 344.047,223.762 323.5,230.5C 315.648,209.64 301.982,193.64 282.5,182.5C 292.833,163.167 303.167,143.833 313.5,124.5C 317.833,117.167 322.167,109.833 326.5,102.5 Z"/></g>
<g><path style="opacity:0.997" fill="#fddf30" d="M 313.5,124.5 C 303.167,143.833 292.833,163.167 282.5,182.5C 256.662,169.583 230.662,169.25 204.5,181.5C 195.164,161.496 185.831,141.496 176.5,121.5C 186.391,116.59 196.725,112.757 207.5,110C 244.761,101.827 280.094,106.661 313.5,124.5 Z"/></g>
<g><path style="opacity:0.996" fill="#03f1a5" d="M 175.5,121.5 C 175.833,121.5 176.167,121.5 176.5,121.5C 185.831,141.496 195.164,161.496 204.5,181.5C 184.856,192.143 170.856,207.809 162.5,228.5C 141.833,220.833 121.167,213.167 100.5,205.5C 100.5,205.167 100.5,204.833 100.5,204.5C 115.351,167.65 140.351,139.983 175.5,121.5 Z"/></g>
<g><path style="opacity:0.997" fill="#74cdd5" d="M 14.5,172.5 C 43.1772,183.173 71.8439,193.84 100.5,204.5C 100.5,204.833 100.5,205.167 100.5,205.5C 87.6582,243.194 88.6582,280.527 103.5,317.5C 75.2745,329.447 46.9412,341.113 18.5,352.5C 8.56356,329.087 2.23023,304.754 -0.5,279.5C -0.5,264.833 -0.5,250.167 -0.5,235.5C 1.81237,213.955 6.81237,192.955 14.5,172.5 Z"/></g>
<g><path style="opacity:0.996" fill="#fd7d43" d="M 474.5,184.5 C 489.778,237.619 488.278,290.286 470,342.5C 467.332,349.828 464.165,356.828 460.5,363.5C 433.688,349.928 406.688,336.595 379.5,323.5C 394.967,287.784 397.634,251.118 387.5,213.5C 387.253,212.287 386.586,211.62 385.5,211.5C 393.883,208.654 402.217,205.654 410.5,202.5C 431.332,196.791 451.999,190.457 472.5,183.5C 473.183,183.863 473.85,184.196 474.5,184.5 Z"/></g>
<g><path style="opacity:0.998" fill="#2abcc8" d="M 100.5,205.5 C 121.167,213.167 141.833,220.833 162.5,228.5C 155.402,250.072 156.069,271.405 164.5,292.5C 144.048,300.56 123.715,308.893 103.5,317.5C 88.6582,280.527 87.6582,243.194 100.5,205.5 Z"/></g>
<g><path style="opacity:0.996" fill="#fc6930" d="M 385.5,211.5 C 386.586,211.62 387.253,212.287 387.5,213.5C 397.634,251.118 394.967,287.784 379.5,323.5C 379.167,323.5 378.833,323.5 378.5,323.5C 359.241,313.037 339.574,303.371 319.5,294.5C 328.492,273.664 329.825,252.331 323.5,230.5C 344.047,223.762 364.713,217.429 385.5,211.5 Z"/></g>
<g><path style="opacity:0.997" fill="#26a6fd" d="M 164.5,292.5 C 174.683,312.584 190.017,327.251 210.5,336.5C 201.516,356.428 192.516,376.428 183.5,396.5C 146.939,380.272 120.272,353.939 103.5,317.5C 123.715,308.893 144.048,300.56 164.5,292.5 Z"/></g>
<g><path style="opacity:0.998" fill="#e84444" d="M 319.5,294.5 C 339.574,303.371 359.241,313.037 378.5,323.5C 361.958,357.459 336.292,381.959 301.5,397C 299.564,397.813 297.564,398.313 295.5,398.5C 288.167,377.833 280.833,357.167 273.5,336.5C 294.269,328.395 309.602,314.395 319.5,294.5 Z"/></g>
<g><path style="opacity:0.996" fill="#89c8fd" d="M 103.5,317.5 C 120.272,353.939 146.939,380.272 183.5,396.5C 183.5,396.833 183.5,397.167 183.5,397.5C 170.796,425.257 158.463,453.257 146.5,481.5C 87.0856,455.086 44.4189,412.086 18.5,352.5C 46.9412,341.113 75.2745,329.447 103.5,317.5 Z"/></g>
<g><path style="opacity:0.996" fill="#ee6060" d="M 378.5,323.5 C 378.833,323.5 379.167,323.5 379.5,323.5C 406.688,336.595 433.688,349.928 460.5,363.5C 432.094,421.574 387.761,462.241 327.5,485.5C 317.349,456.552 306.683,427.886 295.5,399.5C 295.5,399.167 295.5,398.833 295.5,398.5C 297.564,398.313 299.564,397.813 301.5,397C 336.292,381.959 361.958,357.459 378.5,323.5 Z"/></g>
<g><path style="opacity:0.997" fill="#a274be" d="M 210.5,336.5 C 231.531,344.47 252.531,344.47 273.5,336.5C 280.833,357.167 288.167,377.833 295.5,398.5C 295.5,398.833 295.5,399.167 295.5,399.5C 257.895,412.041 220.561,411.374 183.5,397.5C 183.5,397.167 183.5,396.833 183.5,396.5C 192.516,376.428 201.516,356.428 210.5,336.5 Z"/></g>
<g><path style="opacity:0.998" fill="#c2a0d4" d="M 183.5,397.5 C 220.561,411.374 257.895,412.041 295.5,399.5C 306.683,427.886 317.349,456.552 327.5,485.5C 266.753,507.638 206.42,506.305 146.5,481.5C 158.463,453.257 170.796,425.257 183.5,397.5 Z"/></g>
</svg>
